<?xml version="1.0" encoding="UTF-8" standalone="no"?>
<!DOCTYPE svg PUBLIC "-//W3C//DTD SVG 1.1//EN" "http://www.w3.org/Graphics/SVG/1.1/DTD/svg11.dtd">
<svg width="100%" height="100%" viewBox="0 0 400 400" version="1.1" xmlns="http://www.w3.org/2000/svg" xmlns:xlink="http://www.w3.org/1999/xlink" xml:space="preserve" xmlns:serif="http://www.serif.com/" style="fill-rule:evenodd;clip-rule:evenodd;stroke-linecap:round;stroke-linejoin:round;stroke-miterlimit:1.5;">
    <g transform="matrix(1,0,0,1,-1932,-427)">
        <g transform="matrix(1.38494,0,0,1.35428,1932,427.97)">
            <rect id="logo_mørk" x="0" y="0" width="288.822" height="295.36" style="fill:none;"/>
            <g id="logo_mørk1" serif:id="logo_mørk">
                <g transform="matrix(0.722054,0,0,0.738401,-1395.01,-316.013)">
                    <path d="M2135.55,565.33C2166.74,565.33 2192.06,590.794 2192.06,622.158C2192.06,653.522 2166.74,678.986 2135.55,678.986C2104.37,678.986 2079.05,653.522 2079.05,622.158C2079.05,590.794 2104.37,565.33 2135.55,565.33ZM2252.62,572.073C2260.53,589.07 2264.94,608.009 2264.94,627.97C2264.94,701.286 2205.37,760.81 2132,760.81C2058.63,760.81 1999.06,701.286 1999.06,627.97C1999.06,554.654 2058.63,495.13 2132,495.13C2148.42,495.13 2164.15,498.111 2178.67,503.561L2172.36,509.95C2170.65,509.847 2168.93,509.794 2167.19,509.794C2121.04,509.794 2083.57,546.977 2083.57,592.775C2083.57,594.965 2083.65,597.134 2083.82,599.278C2080.75,606.277 2079.05,614.019 2079.05,622.158C2079.05,653.522 2104.37,678.986 2135.55,678.986C2142.85,678.986 2149.83,677.59 2156.24,675.05C2159.83,675.517 2163.48,675.757 2167.19,675.757C2213.35,675.757 2250.82,638.574 2250.82,592.775C2250.82,586.919 2250.21,581.204 2249.04,575.689L2252.62,572.073ZM2278.32,546.053C2282.14,542.179 2282.11,535.937 2278.23,532.111C2264.52,518.564 2234.29,488.711 2220.58,475.164C2216.7,471.338 2210.46,471.376 2206.64,475.25C2195.13,486.902 2172.2,510.117 2160.69,521.769C2156.86,525.643 2156.9,531.885 2160.77,535.712C2174.49,549.258 2204.71,579.111 2218.43,592.658C2222.3,596.484 2228.54,596.446 2232.37,592.572C2243.88,580.92 2266.81,557.705 2278.32,546.053Z" style="fill:none;stroke:rgb(2,2,2);stroke-width:6.67px;"/>
                </g>
            </g>
        </g>
    </g>
</svg>
