<?xml version="1.0" encoding="UTF-8" standalone="no"?>
<!DOCTYPE svg PUBLIC "-//W3C//DTD SVG 1.1//EN" "http://www.w3.org/Graphics/SVG/1.1/DTD/svg11.dtd">
<svg width="100%" height="100%" viewBox="0 0 400 400" version="1.1" xmlns="http://www.w3.org/2000/svg" xmlns:xlink="http://www.w3.org/1999/xlink" xml:space="preserve" xmlns:serif="http://www.serif.com/" style="fill-rule:evenodd;clip-rule:evenodd;stroke-linejoin:round;stroke-miterlimit:2;">
    <g transform="matrix(1,0,0,1,0,-439)">
        <g transform="matrix(1.38494,0,0,1.35428,0,439.647)">
            <rect id="logo_farge" x="0" y="0" width="288.822" height="295.36" style="fill:none;"/>
            <g id="logo_farge1" serif:id="logo_farge">
                <g id="Symbol" transform="matrix(0.477385,0,0,0.488193,-43.679,-2.68328)">
                    <g transform="matrix(1,0,0,1,106.559,-9.66177)">
                        <path d="M414.153,76.634C417.937,76.7 421.703,78.166 424.609,81.036C445.847,102.014 492.648,148.243 513.886,169.22C519.884,175.145 519.944,184.812 514.019,190.811L474.22,231.102C486.469,257.424 493.307,286.751 493.307,317.662C493.307,431.195 401.062,523.369 287.441,523.369C173.821,523.369 81.576,431.195 81.576,317.662C81.576,204.129 173.821,111.955 287.441,111.955C312.866,111.955 337.221,116.57 359.715,125.009L403.019,81.169C406.028,78.123 410.001,76.609 413.969,76.631L414.153,76.634Z" style="fill:white;"/>
                    </g>
                    <g transform="matrix(1.00575,0,0,1.01149,6.25287,-8.49425)">
                        <circle cx="391" cy="304" r="87" style="fill:rgb(45,35,106);"/>
                    </g>
                    <path d="M580.779,221.441C593.028,247.762 599.865,277.09 599.865,308C599.865,421.533 507.62,513.707 394,513.707C280.38,513.707 188.135,421.533 188.135,308C188.135,194.467 280.38,102.293 394,102.293C419.425,102.293 443.78,106.908 466.274,115.348L456.501,125.242C453.857,125.081 451.188,125 448.5,125C377.027,125 319,182.579 319,253.5C319,256.89 319.133,260.25 319.393,263.569C314.64,274.408 312,286.396 312,299C312,347.569 351.207,387 399.5,387C410.805,387 421.613,384.839 431.538,380.905C437.094,381.628 442.754,382 448.5,382C519.973,382 578,324.421 578,253.5C578,244.432 577.051,235.581 575.246,227.041L580.779,221.441Z" style="fill:rgb(43,147,212);"/>
                    <path d="M620.577,181.149C626.503,175.15 626.443,165.484 620.444,159.558C599.207,138.581 552.405,92.352 531.168,71.375C525.169,65.449 515.503,65.509 509.577,71.508C491.754,89.552 456.246,125.5 438.423,143.544C432.497,149.543 432.557,159.209 438.556,165.134C459.793,186.112 506.595,232.34 527.832,253.318C533.831,259.243 543.497,259.184 549.423,253.185C567.246,235.141 602.754,199.193 620.577,181.149ZM608.092,171.358L519.862,84.208L451.249,153.671L539.479,240.821L608.092,171.358Z" style="fill:rgb(45,35,106);"/>
                </g>
            </g>
        </g>
    </g>
</svg>
