<?xml version="1.0" encoding="UTF-8" standalone="no"?>
<!DOCTYPE svg PUBLIC "-//W3C//DTD SVG 1.1//EN" "http://www.w3.org/Graphics/SVG/1.1/DTD/svg11.dtd">
<svg width="100%" height="100%" viewBox="0 0 900 300" version="1.1" xmlns="http://www.w3.org/2000/svg" xmlns:xlink="http://www.w3.org/1999/xlink" xml:space="preserve" xmlns:serif="http://www.serif.com/" style="fill-rule:evenodd;clip-rule:evenodd;stroke-linejoin:round;stroke-miterlimit:2;">
    <g transform="matrix(1,0,0,1,-966,0)">
        <g transform="matrix(1,0,0,1,-0.666667,0)">
            <rect id="logo-navnetrekk-farge_2" x="966.667" y="0" width="900" height="300" style="fill:none;"/>
            <g id="logo-navnetrekk-farge_21" serif:id="logo-navnetrekk-farge_2">
                <g id="Logo-m-navnetrekk" serif:id="Logo m/navnetrekk" transform="matrix(0.320836,0,0,0.320836,926.858,-42.4413)">
                    <g id="Navnetrekk" transform="matrix(3.63706,0,0,3.63706,-5318.85,176.564)">
                        <path d="M1807.78,85.038C1807.78,87.119 1808.23,90.325 1808.23,90.494C1808.12,90.325 1806.66,87.738 1805.53,86.219L1787.36,61.413L1778.87,61.413L1778.87,65.688L1782.19,65.688L1782.19,95.388L1778.87,95.388L1778.87,99.663L1791.08,99.663L1791.08,95.388L1787.31,95.388L1787.31,75.588C1787.31,73.113 1787.08,69.681 1787.08,69.625C1787.14,69.738 1788.38,72.269 1789.84,74.181L1808.51,99.663L1812.85,99.663L1812.85,65.688L1816.16,65.688L1816.16,61.413L1803.96,61.413L1803.96,65.688L1807.78,65.688L1807.78,85.038Z" style="fill:white;fill-rule:nonzero;"/>
                        <path d="M1846.37,71.313L1846.37,61.413L1842.49,61.413L1842.04,64.45C1840.58,62.313 1837.88,60.963 1834.5,60.963C1828.71,60.963 1824.1,65.013 1824.1,70.75C1824.1,76.6 1827.25,79.469 1833.04,81.719L1835.8,82.844C1840.58,84.756 1842.55,86.669 1842.55,89.763C1842.55,93.25 1839.73,95.388 1835.8,95.388C1831.01,95.388 1828.2,92.631 1827.58,88.413L1822.97,88.413L1822.97,99.663L1826.8,99.663L1827.36,96.231C1828.88,98.369 1831.69,100.113 1836.47,100.113C1842.77,100.113 1848.28,96.625 1848.28,89.313C1848.28,83.406 1844.8,80.031 1838.27,77.556L1835.51,76.431C1831.3,74.744 1829.66,73.281 1829.66,70.469C1829.66,67.544 1831.86,65.631 1835.23,65.631C1838.66,65.631 1841.25,67.713 1841.76,71.313L1846.37,71.313Z" style="fill:white;fill-rule:nonzero;"/>
                        <path d="M1882.76,71.2L1882.76,61.413L1855.26,61.413L1855.26,65.688L1858.58,65.688L1858.58,95.388L1855.26,95.388L1855.26,99.663L1868.59,99.663L1868.59,95.388L1864.54,95.388L1864.54,83.856L1878.88,83.856L1878.88,79.188L1864.54,79.188L1864.54,66.081L1877.59,66.081L1878.38,71.2L1882.76,71.2Z" style="fill:white;fill-rule:nonzero;"/>
                        <path d="M1901.05,82.788L1904.76,82.788L1904.76,76.038L1901.33,76.038L1900.82,77.894C1899.64,76.6 1897.95,75.531 1895.25,75.531C1890.81,75.531 1887.21,78.175 1887.21,82.563C1887.21,87.4 1890.69,88.975 1894.97,90.156C1898.8,91.169 1900.26,91.619 1900.26,93.531C1900.26,95.219 1898.63,96.119 1896.1,96.119C1893.28,96.119 1891.2,94.6 1890.69,92.125L1886.7,92.125L1886.7,99.663L1890.19,99.663L1890.58,97.581C1891.82,99.044 1893.68,100.169 1897,100.169C1903.01,100.169 1905.77,96.85 1905.77,92.856C1905.77,88.581 1902.9,86.669 1897.22,85.206C1893.73,84.306 1892.44,83.631 1892.44,82C1892.44,80.313 1894.01,79.525 1895.93,79.525C1898.18,79.525 1900.14,80.538 1901.05,82.788Z" style="fill:white;fill-rule:nonzero;"/>
                        <path d="M1955.61,71.2L1955.61,61.413L1928.1,61.413L1928.1,65.688L1931.42,65.688L1931.42,95.388L1928.1,95.388L1928.1,99.663L1941.43,99.663L1941.43,95.388L1937.38,95.388L1937.38,83.856L1951.73,83.856L1951.73,79.188L1937.38,79.188L1937.38,66.081L1950.43,66.081L1951.22,71.2L1955.61,71.2Z" style="fill:white;fill-rule:nonzero;"/>
                        <path d="M1967.7,65.688L1971.47,65.688L1960.11,95.388L1957.13,95.388L1957.13,99.663L1970.23,99.663L1970.23,95.388L1965.51,95.388L1967.64,89.706L1982.89,89.706L1985.03,95.388L1981.26,95.388L1981.26,99.663L1994.03,99.663L1994.03,95.388L1991.05,95.388L1979.96,65.688L1983.56,65.688L1983.56,61.413L1967.7,61.413L1967.7,65.688ZM1973.16,74.856C1974.17,72.1 1975.3,67.938 1975.41,67.544C1975.46,68.106 1976.42,72.1 1977.49,74.856L1981.37,85.263L1969.22,85.263L1973.16,74.856Z" style="fill:white;fill-rule:nonzero;"/>
                        <path d="M2032.95,99.663L2032.95,80.313L2017.2,80.313L2017.2,85.094L2027.21,85.094L2027.21,92.406C2025.36,93.869 2022.49,95.331 2017.48,95.331C2008.48,95.331 2003.76,88.694 2003.76,80.538C2003.76,72.663 2008.76,65.856 2017.31,65.856C2022.1,65.856 2025.98,68.05 2027.16,72.831L2031.6,72.831L2031.6,61.413L2027.61,61.413L2027.16,65.238C2025.64,63.044 2022.43,60.963 2016.98,60.963C2006.35,60.963 1997.63,68.838 1997.63,80.706C1997.63,92.181 2005.89,100.113 2016.92,100.113C2022.32,100.113 2025.98,98.369 2028.28,96.513L2028.85,99.663L2032.95,99.663Z" style="fill:white;fill-rule:nonzero;"/>
                        <path d="M2077.56,99.663L2077.56,80.313L2061.81,80.313L2061.81,85.094L2071.82,85.094L2071.82,92.406C2069.96,93.869 2067.1,95.331 2062.09,95.331C2053.09,95.331 2048.36,88.694 2048.36,80.538C2048.36,72.663 2053.37,65.856 2061.92,65.856C2066.7,65.856 2070.58,68.05 2071.76,72.831L2076.21,72.831L2076.21,61.413L2072.21,61.413L2071.76,65.238C2070.24,63.044 2067.04,60.963 2061.58,60.963C2050.95,60.963 2042.23,68.838 2042.23,80.706C2042.23,92.181 2050.5,100.113 2061.53,100.113C2066.93,100.113 2070.58,98.369 2072.89,96.513L2073.45,99.663L2077.56,99.663Z" style="fill:white;fill-rule:nonzero;"/>
                        <path d="M2087.18,61.413L2087.18,65.688L2090.49,65.688L2090.49,95.388L2087.18,95.388L2087.18,99.663L2100.17,99.663L2100.17,95.388L2096.46,95.388L2096.46,85.15L2102.31,85.15C2102.64,85.15 2103.26,85.15 2103.55,85.094L2111.81,99.663L2119.74,99.663L2119.74,95.388L2115.86,95.388L2109.45,84.138C2114.18,82.563 2117.21,79.019 2117.21,73.45C2117.21,65.069 2111.25,61.413 2103.32,61.413L2087.18,61.413ZM2096.46,80.706L2096.46,66.081L2103.1,66.081C2108.1,66.081 2111.14,68.275 2111.14,73.45C2111.14,78.456 2108.16,80.706 2103.1,80.706L2096.46,80.706Z" style="fill:white;fill-rule:nonzero;"/>
                        <path d="M2156.64,65.688L2159.96,65.688L2159.96,61.413L2147.59,61.413L2147.59,65.688L2151.13,65.688L2151.13,86.444C2151.13,92.631 2147.76,95.388 2142.3,95.388C2136.9,95.388 2133.64,92.631 2133.64,86.444L2133.64,65.688L2137.18,65.688L2137.18,61.413L2124.41,61.413L2124.41,65.688L2127.73,65.688L2127.73,86.5C2127.73,95.781 2133.7,100.113 2142.08,100.113C2150.57,100.113 2156.64,95.556 2156.64,86.219L2156.64,65.688Z" style="fill:white;fill-rule:nonzero;"/>
                        <path d="M2176.56,81.381L2176.56,66.081L2182.69,66.081C2187.53,66.081 2190.73,68.444 2190.73,73.731C2190.73,78.85 2187.58,81.381 2182.69,81.381L2176.56,81.381ZM2167.28,61.413L2167.28,65.688L2170.6,65.688L2170.6,95.388L2167.28,95.388L2167.28,99.663L2180.61,99.663L2180.61,95.388L2176.56,95.388L2176.56,85.994L2182.91,85.994C2190.9,85.994 2196.86,82.056 2196.86,73.731C2196.86,65.35 2190.9,61.413 2182.91,61.413L2167.28,61.413Z" style="fill:white;fill-rule:nonzero;"/>
                        <path d="M2212.61,81.381L2212.61,66.081L2218.74,66.081C2223.58,66.081 2226.79,68.444 2226.79,73.731C2226.79,78.85 2223.64,81.381 2218.74,81.381L2212.61,81.381ZM2203.33,61.413L2203.33,65.688L2206.65,65.688L2206.65,95.388L2203.33,95.388L2203.33,99.663L2216.66,99.663L2216.66,95.388L2212.61,95.388L2212.61,85.994L2218.97,85.994C2226.96,85.994 2232.92,82.056 2232.92,73.731C2232.92,65.35 2226.96,61.413 2218.97,61.413L2203.33,61.413Z" style="fill:white;fill-rule:nonzero;"/>
                        <path d="M2267.8,99.663L2267.8,89.931L2263.46,89.931L2262.62,94.994L2248.67,94.994L2248.67,82.788L2262.51,82.788L2262.51,78.119L2248.67,78.119L2248.67,66.081L2261.83,66.081L2262.68,70.806L2267.01,70.806L2267.01,61.413L2239.39,61.413L2239.39,65.688L2242.71,65.688L2242.71,95.388L2239.39,95.388L2239.39,99.663L2267.8,99.663Z" style="fill:white;fill-rule:nonzero;"/>
                        <path d="M1806.38,144.117L1806.38,134.329L1778.87,134.329L1778.87,138.604L1782.19,138.604L1782.19,168.304L1778.87,168.304L1778.87,172.579L1792.2,172.579L1792.2,168.304L1788.15,168.304L1788.15,156.773L1802.5,156.773L1802.5,152.104L1788.15,152.104L1788.15,138.998L1801.2,138.998L1801.99,144.117L1806.38,144.117Z" style="fill:white;fill-rule:nonzero;"/>
                        <path d="M1832.64,173.029C1843.73,173.029 1852.39,164.873 1852.39,153.454C1852.39,142.036 1843.73,133.879 1832.64,133.879C1821.56,133.879 1812.9,142.036 1812.9,153.454C1812.9,164.873 1821.56,173.029 1832.64,173.029ZM1832.64,168.136C1824.66,168.136 1819.03,162.061 1819.03,153.454C1819.03,144.848 1824.66,138.773 1832.64,138.773C1840.63,138.773 1846.26,144.848 1846.26,153.454C1846.26,162.061 1840.63,168.136 1832.64,168.136Z" style="fill:white;fill-rule:nonzero;"/>
                        <path d="M1859.7,134.329L1859.7,138.604L1863.02,138.604L1863.02,168.304L1859.7,168.304L1859.7,172.579L1872.69,172.579L1872.69,168.304L1868.98,168.304L1868.98,158.067L1874.83,158.067C1875.17,158.067 1875.79,158.067 1876.07,158.011L1884.34,172.579L1892.27,172.579L1892.27,168.304L1888.39,168.304L1881.98,157.054C1886.7,155.479 1889.74,151.936 1889.74,146.367C1889.74,137.986 1883.78,134.329 1875.85,134.329L1859.7,134.329ZM1868.98,153.623L1868.98,138.998L1875.62,138.998C1880.63,138.998 1883.66,141.192 1883.66,146.367C1883.66,151.373 1880.68,153.623 1875.62,153.623L1868.98,153.623Z" style="fill:white;fill-rule:nonzero;"/>
                        <path d="M1941.26,172.579L1941.26,162.848L1936.93,162.848L1936.09,167.911L1922.14,167.911L1922.14,155.704L1935.98,155.704L1935.98,151.036L1922.14,151.036L1922.14,138.998L1935.3,138.998L1936.14,143.723L1940.48,143.723L1940.48,134.329L1912.86,134.329L1912.86,138.604L1916.18,138.604L1916.18,168.304L1912.86,168.304L1912.86,172.579L1941.26,172.579Z" style="fill:white;fill-rule:nonzero;"/>
                        <rect x="1949.36" y="156.942" width="11.869" height="4.669" style="fill:white;fill-rule:nonzero;"/>
                        <path d="M1996.39,168.304L1992.85,168.304L1992.85,172.579L2005.61,172.579L2005.61,168.304L2002.3,168.304L2002.3,138.604L2005.61,138.604L2005.61,134.329L1992.85,134.329L1992.85,138.604L1996.39,138.604L1996.39,151.598L1977.94,151.598L1977.94,138.604L1981.48,138.604L1981.48,134.329L1968.66,134.329L1968.66,138.604L1971.98,138.604L1971.98,168.304L1968.66,168.304L1968.66,172.579L1981.48,172.579L1981.48,168.304L1977.94,168.304L1977.94,156.323L1996.39,156.323L1996.39,168.304Z" style="fill:white;fill-rule:nonzero;"/>
                        <path d="M2041.73,172.579L2041.73,162.848L2037.39,162.848L2036.55,167.911L2022.6,167.911L2022.6,155.704L2036.44,155.704L2036.44,151.036L2022.6,151.036L2022.6,138.998L2035.76,138.998L2036.61,143.723L2040.94,143.723L2040.94,134.329L2013.32,134.329L2013.32,138.604L2016.64,138.604L2016.64,168.304L2013.32,168.304L2013.32,172.579L2041.73,172.579Z" style="fill:white;fill-rule:nonzero;"/>
                        <path d="M2049.55,172.579L2076.55,172.579L2076.55,161.836L2072.16,161.836L2071.31,167.911L2058.83,167.911L2058.83,138.604L2062.37,138.604L2062.37,134.329L2049.55,134.329L2049.55,138.604L2052.86,138.604L2052.86,168.304L2049.55,168.304L2049.55,172.579Z" style="fill:white;fill-rule:nonzero;"/>
                        <path d="M2107.2,144.229L2107.2,134.329L2103.32,134.329L2102.87,137.367C2101.41,135.229 2098.71,133.879 2095.33,133.879C2089.54,133.879 2084.93,137.929 2084.93,143.667C2084.93,149.517 2088.08,152.386 2093.87,154.636L2096.63,155.761C2101.41,157.673 2103.38,159.586 2103.38,162.679C2103.38,166.167 2100.56,168.304 2096.63,168.304C2091.85,168.304 2089.03,165.548 2088.41,161.329L2083.8,161.329L2083.8,172.579L2087.63,172.579L2088.19,169.148C2089.71,171.286 2092.52,173.029 2097.3,173.029C2103.6,173.029 2109.11,169.542 2109.11,162.229C2109.11,156.323 2105.63,152.948 2099.1,150.473L2096.35,149.348C2092.13,147.661 2090.49,146.198 2090.49,143.386C2090.49,140.461 2092.69,138.548 2096.06,138.548C2099.49,138.548 2102.08,140.629 2102.59,144.229L2107.2,144.229Z" style="fill:white;fill-rule:nonzero;"/>
                        <path d="M2144.49,172.579L2144.49,162.848L2140.16,162.848L2139.32,167.911L2125.37,167.911L2125.37,155.704L2139.21,155.704L2139.21,151.036L2125.37,151.036L2125.37,138.998L2138.53,138.998L2139.38,143.723L2143.71,143.723L2143.71,134.329L2116.09,134.329L2116.09,138.604L2119.41,138.604L2119.41,168.304L2116.09,168.304L2116.09,172.579L2144.49,172.579Z" style="fill:white;fill-rule:nonzero;"/>
                    </g>
                    <g id="Symbol" transform="matrix(2.06071,0,0,2.06071,-263.613,1.51009)">
                        <g transform="matrix(1,0,0,1,106.559,-9.66177)">
                            <path d="M414.153,76.634C417.937,76.7 421.703,78.166 424.609,81.036C445.847,102.014 492.648,148.243 513.886,169.22C519.884,175.145 519.944,184.812 514.019,190.811L474.22,231.102C486.469,257.424 493.307,286.751 493.307,317.662C493.307,431.195 401.062,523.369 287.441,523.369C173.821,523.369 81.576,431.195 81.576,317.662C81.576,204.129 173.821,111.955 287.441,111.955C312.866,111.955 337.221,116.57 359.715,125.009L403.019,81.169C406.028,78.123 410.001,76.609 413.969,76.631L414.153,76.634Z" style="fill:white;"/>
                        </g>
                        <g transform="matrix(1.00575,0,0,1.01149,6.25287,-8.49425)">
                            <circle cx="391" cy="304" r="87" style="fill:rgb(45,35,106);"/>
                        </g>
                        <path d="M580.779,221.441C593.028,247.762 599.865,277.09 599.865,308C599.865,421.533 507.62,513.707 394,513.707C280.38,513.707 188.135,421.533 188.135,308C188.135,194.467 280.38,102.293 394,102.293C419.425,102.293 443.78,106.908 466.274,115.348L456.501,125.242C453.857,125.081 451.188,125 448.5,125C377.027,125 319,182.579 319,253.5C319,256.89 319.133,260.25 319.393,263.569C314.64,274.408 312,286.396 312,299C312,347.569 351.207,387 399.5,387C410.805,387 421.613,384.839 431.538,380.905C437.094,381.628 442.754,382 448.5,382C519.973,382 578,324.421 578,253.5C578,244.432 577.051,235.581 575.246,227.041L580.779,221.441Z" style="fill:rgb(43,147,212);"/>
                        <path d="M620.577,181.149C626.503,175.15 626.443,165.484 620.444,159.558C599.207,138.581 552.405,92.352 531.168,71.375C525.169,65.449 515.503,65.509 509.577,71.508C491.754,89.552 456.246,125.5 438.423,143.544C432.497,149.543 432.557,159.209 438.556,165.134C459.793,186.112 506.595,232.34 527.832,253.318C533.831,259.243 543.497,259.184 549.423,253.185C567.246,235.141 602.754,199.193 620.577,181.149ZM608.092,171.358L519.862,84.208L451.249,153.671L539.479,240.821L608.092,171.358Z" style="fill:rgb(45,35,106);"/>
                        <path d="M620.577,181.149C626.503,175.15 626.443,165.484 620.444,159.558C599.207,138.581 552.405,92.352 531.168,71.375C525.169,65.449 515.503,65.509 509.577,71.508C491.754,89.552 456.246,125.5 438.423,143.544C432.497,149.543 432.557,159.209 438.556,165.134C459.793,186.112 506.595,232.34 527.832,253.318C533.831,259.243 543.497,259.184 549.423,253.185C567.246,235.141 602.754,199.193 620.577,181.149ZM608.092,171.358L519.862,84.208L451.249,153.671L539.479,240.821L608.092,171.358Z" style="fill:rgb(45,35,106);"/>
                    </g>
                </g>
            </g>
        </g>
    </g>
</svg>
